<svg width="12" height="7" viewBox="0 0 12 7" fill="none" xmlns="http://www.w3.org/2000/svg">
<path d="M11.6843 0.31088C11.5849 0.212332 11.4668 0.134148 11.3368 0.0808034C11.2067 0.0274585 11.0674 -4.07665e-08 10.9266 -4.6919e-08C10.7859 -5.30715e-08 10.6465 0.0274585 10.5165 0.0808034C10.3865 0.134148 10.2684 0.212332 10.1689 0.31088L5.99906 4.43548L1.82918 0.31088C1.62823 0.112115 1.35569 0.000449659 1.07151 0.000449647C0.787328 0.000449634 0.514783 0.112115 0.313836 0.310879C0.112888 0.509644 -3.40611e-08 0.779227 -4.63482e-08 1.06032C-5.86353e-08 1.34142 0.112888 1.611 0.313836 1.80977L5.24676 6.68912C5.34619 6.78767 5.46429 6.86585 5.5943 6.9192C5.72431 6.97254 5.86368 7 6.00444 7C6.14519 7 6.28456 6.97254 6.41457 6.9192C6.54458 6.86585 6.66268 6.78767 6.76211 6.68912L11.695 1.80977C12.1034 1.40581 12.1034 0.725466 11.6843 0.31088Z" fill="#8D624C"/>
</svg>
