<svg width="22" height="21" viewBox="0 0 22 21" fill="none" xmlns="http://www.w3.org/2000/svg">
<path d="M20.752 9.12597L11.1738 18.705C10.0692 19.8096 8.57111 20.4301 7.00902 20.4301C5.44693 20.4301 3.94881 19.8096 2.84425 18.705C1.73968 17.6005 1.11914 16.1024 1.11914 14.5403C1.11914 12.9782 1.73968 11.4801 2.84425 10.3755L10.7113 2.50928C11.0735 2.13425 11.5068 1.83512 11.9859 1.62933C12.4649 1.42354 12.9802 1.31523 13.5015 1.3107C14.0229 1.30616 14.54 1.40551 15.0225 1.60294C15.5051 1.80038 15.9435 2.09193 16.3122 2.46061C16.6808 2.82929 16.9724 3.26769 17.1698 3.75025C17.3673 4.23281 17.4666 4.74986 17.4621 5.27123C17.4575 5.7926 17.3492 6.30784 17.1434 6.7869C16.9377 7.26595 16.6385 7.69923 16.2635 8.06144L8.39728 15.932C8.02706 16.2897 7.53116 16.4877 7.01639 16.4833C6.50162 16.4789 6.00918 16.2725 5.64511 15.9085C5.28104 15.5446 5.07449 15.0522 5.06994 14.5374C5.06538 14.0227 5.26319 13.5267 5.62076 13.1564L13.4878 5.28667" stroke="#A7A9AD" stroke-width="1.12188" stroke-linecap="round" stroke-linejoin="round"/>
</svg>
