<svg width="36" height="35" viewBox="0 0 36 35" fill="none" xmlns="http://www.w3.org/2000/svg">
<path d="M12.9747 24.5824L14.0964 24.3896C14.3138 24.3511 14.5731 24.295 14.8728 24.2179C18.5779 23.289 21.0316 20.5198 21.0316 17.5263C21.0316 13.7845 17.2179 10.5158 12.2684 10.5158C7.31899 10.5158 3.50527 13.7845 3.50527 17.5263C3.50527 19.661 4.73561 21.6941 6.8896 23.0471L6.95269 23.0822L8.76316 24.0812V28.9237L12.9747 24.5824ZM14.6958 27.8423L8.26892 34.4673C8.02604 34.7178 7.71389 34.8902 7.37247 34.9622C7.03104 35.0343 6.67587 35.0028 6.35245 34.8718C6.02904 34.7407 5.75209 34.5162 5.55709 34.2268C5.36209 33.9374 5.25791 33.5964 5.2579 33.2474V26.1493C5.1796 26.107 5.10246 26.0626 5.02655 26.0161C1.97872 24.1022 0 21.0123 0 17.5263C0 11.7181 5.49275 7.01053 12.2684 7.01053C19.0441 7.01053 24.5369 11.7181 24.5369 17.5263C24.5369 22.304 20.8195 26.3386 15.7281 27.618C15.3869 27.7054 15.0426 27.7803 14.6958 27.8423ZM12.1563 5.2579C14.2769 2.11543 18.2449 0 22.7842 0C29.5599 0 35.0527 4.70757 35.0527 10.5158C35.0527 14.0018 33.0722 17.0917 30.0261 19.0055C29.9502 19.052 29.8731 19.0964 29.7948 19.1388V26.2369C29.7947 26.5859 29.6906 26.9269 29.4956 27.2162C29.3006 27.5056 29.0236 27.7302 28.7002 27.8612C28.3768 27.9923 28.0216 28.0238 27.6802 27.9517C27.3388 27.8796 27.0266 27.7073 26.7837 27.4567L23.7429 24.323L25.5709 21.1718L26.2895 21.9132V17.0706L28.1 16.0716L28.1631 16.0366C30.3188 14.6836 31.5474 12.6505 31.5474 10.5158C31.5474 6.77393 27.7337 3.50527 22.7842 3.50527C20.5409 3.50527 18.5323 4.17652 17.0058 5.2579H12.1563Z" fill="#8D624C"/>
</svg>
