<svg width="36" height="36" viewBox="0 0 36 36" fill="none" xmlns="http://www.w3.org/2000/svg">
<g clip-path="url(#clip0_829_1023)">
<path d="M18.0003 34.28C18.6302 34.2655 19.2348 34.0287 19.7069 33.6114C20.1791 33.1942 20.4884 32.6234 20.5803 32H15.3203C15.4148 32.6403 15.7386 33.2245 16.2316 33.6439C16.7246 34.0633 17.3531 34.2894 18.0003 34.28Z" fill="#8D624C"/>
<path d="M32.5108 27.83C31.5465 26.9704 30.7022 25.9849 30.0008 24.9C29.235 23.4026 28.776 21.7673 28.6508 20.09V15.15C28.6467 14.55 28.5932 13.9513 28.4908 13.36C27.7037 13.2027 26.9472 12.919 26.2508 12.52C26.5163 13.3749 26.6511 14.2649 26.6508 15.16V20.1C26.7733 22.146 27.3362 24.1415 28.3008 25.95C28.9912 27.044 29.8104 28.0512 30.7408 28.95H5.13078C6.06119 28.0512 6.88038 27.044 7.57078 25.95C8.53539 24.1415 9.09821 22.146 9.22078 20.1V15.15C9.21552 13.9927 9.43859 12.8457 9.87722 11.7747C10.3159 10.7038 10.9614 9.72982 11.777 8.90869C12.5926 8.08755 13.5621 7.43535 14.6301 6.98944C15.698 6.54352 16.8435 6.31264 18.0008 6.31002C19.6945 6.31138 21.3503 6.81228 22.7608 7.75002C22.6053 7.17901 22.518 6.59158 22.5008 6.00002V5.37002C21.4566 4.85638 20.3349 4.51851 19.1808 4.37002V3.11002C19.1808 2.75596 19.0401 2.4164 18.7898 2.16604C18.5394 1.91568 18.1998 1.77502 17.8458 1.77502C17.4917 1.77502 17.1522 1.91568 16.9018 2.16604C16.6514 2.4164 16.5108 2.75596 16.5108 3.11002V4.42002C13.9265 4.78458 11.5614 6.07177 9.852 8.04396C8.14265 10.0161 7.20451 12.5402 7.21078 15.15V20.09C7.08554 21.7673 6.62656 23.4026 5.86078 24.9C5.17166 25.9824 4.34098 26.9678 3.39078 27.83C3.28411 27.9237 3.19862 28.0391 3.14 28.1684C3.08137 28.2977 3.05096 28.438 3.05078 28.58V29.94C3.05078 30.2052 3.15614 30.4596 3.34367 30.6471C3.53121 30.8347 3.78557 30.94 4.05078 30.94H31.8508C32.116 30.94 32.3704 30.8347 32.5579 30.6471C32.7454 30.4596 32.8508 30.2052 32.8508 29.94V28.58C32.8506 28.438 32.8202 28.2977 32.7616 28.1684C32.7029 28.0391 32.6174 27.9237 32.5108 27.83Z" fill="#8D624C"/>
<path d="M30 11C32.7614 11 35 8.76142 35 6C35 3.23858 32.7614 1 30 1C27.2386 1 25 3.23858 25 6C25 8.76142 27.2386 11 30 11Z" fill="#8D624C"/>
</g>
<defs>
<clipPath id="clip0_829_1023">
<rect width="36" height="36" fill="white"/>
</clipPath>
</defs>
</svg>
