<svg width="30" height="29" viewBox="0 0 30 29" fill="none" xmlns="http://www.w3.org/2000/svg">
<path d="M29.3984 14.5046C29.4 12.0914 28.7988 9.71608 27.6495 7.59397C26.5002 5.47187 24.8391 3.67018 22.8169 2.35235C20.7947 1.03451 18.4754 0.242218 16.0694 0.0473449C13.6633 -0.147529 11.2467 0.261181 9.03865 1.2364C6.83062 2.21162 4.90107 3.72249 3.42503 5.63195C1.94899 7.54142 0.973168 9.78907 0.58608 12.171C0.198993 14.553 0.412888 16.9938 1.20836 19.2722C2.00384 21.5506 3.35572 23.5944 5.14139 25.2182C5.1767 25.2601 5.21781 25.2967 5.26348 25.3269C7.915 27.6926 11.3447 29 14.8986 29C18.4525 29 21.8822 27.6925 24.5337 25.3268C24.5791 25.2966 24.62 25.2601 24.6552 25.2183C26.1498 23.8622 27.3439 22.2083 28.1608 20.3632C28.9777 18.518 29.3993 16.5224 29.3984 14.5046ZM1.55844 14.5046C1.5569 12.3122 2.09611 10.1531 3.12834 8.21869C4.16056 6.28424 5.65395 4.63405 7.47631 3.4142C9.29866 2.19436 11.3937 1.44249 13.5761 1.22516C15.7584 1.00783 17.9607 1.33175 19.988 2.16823C22.0153 3.00471 23.8049 4.32796 25.1986 6.02082C26.5923 7.71368 27.547 9.72394 27.9781 11.8736C28.4093 14.0233 28.3036 16.2461 27.6704 18.3452C27.0373 20.4443 25.8962 22.355 24.3482 23.9081C22.9085 21.4979 20.5986 19.7317 17.8947 18.9738C19.1514 18.3056 20.1484 17.2364 20.7272 15.9363C21.306 14.6363 21.4333 13.1801 21.0888 11.7994C20.7443 10.4187 19.9478 9.19289 18.8261 8.31687C17.7044 7.44085 16.3219 6.96498 14.8984 6.96498C13.475 6.96498 12.0925 7.44085 10.9708 8.31687C9.84904 9.19289 9.05258 10.4187 8.70809 11.7994C8.36361 13.1801 8.49088 14.6363 9.06965 15.9363C9.64843 17.2364 10.6455 18.3056 11.9022 18.9738C9.1983 19.7318 6.88839 21.4979 5.44864 23.9081C4.21424 22.6729 3.23535 21.2067 2.56786 19.5932C1.90037 17.9797 1.55736 16.2506 1.55844 14.5046ZM14.8984 18.5633C13.866 18.5633 12.8568 18.2573 11.9984 17.6839C11.1399 17.1105 10.4709 16.2955 10.0758 15.342C9.68069 14.3884 9.57732 13.3392 9.77874 12.3269C9.98015 11.3147 10.4773 10.3848 11.2073 9.65505C11.9374 8.92525 12.8675 8.42825 13.8801 8.22689C14.8926 8.02554 15.9422 8.12888 16.896 8.52385C17.8499 8.91881 18.6651 9.58766 19.2387 10.4458C19.8123 11.304 20.1184 12.3129 20.1184 13.345C20.1169 14.7285 19.5664 16.0549 18.5878 17.0332C17.6092 18.0115 16.2824 18.5618 14.8984 18.5633ZM6.32386 24.7119C7.18465 23.197 8.43164 21.9373 9.93785 21.0609C11.4441 20.1845 13.1557 19.7228 14.8984 19.7228C16.6412 19.7228 18.3528 20.1845 19.859 21.0609C21.3652 21.9373 22.6122 23.197 23.473 24.7119C21.073 26.7324 18.0361 27.8404 14.8984 27.8404C11.7607 27.8404 8.7239 26.7324 6.32386 24.7119Z" fill="#8D624C"/>
</svg>
