<svg width="19" height="18" viewBox="0 0 19 18" fill="none" xmlns="http://www.w3.org/2000/svg">
<path d="M9.29601 17.684C14.1074 17.684 18.0217 13.7696 18.0217 8.9583C18.0217 4.14695 14.1074 0.232605 9.29601 0.232605C4.48466 0.232605 0.570312 4.14695 0.570312 8.9583C0.570312 13.7696 4.48466 17.684 9.29601 17.684ZM12.3439 6.34059C13.0629 6.34059 13.6466 6.92434 13.6466 7.64334C13.6466 8.36233 13.0629 8.94608 12.3439 8.94608C11.6249 8.94608 11.0411 8.36233 11.0411 7.64334C11.0411 6.92434 11.6249 6.34059 12.3439 6.34059ZM8.59097 12.3779C9.05256 12.4713 9.53771 12.4713 10.001 12.3779C10.2218 12.3325 10.4417 12.2636 10.6555 12.1746C10.8597 12.0873 11.0603 11.9791 11.2479 11.8535C11.4294 11.7296 11.6031 11.5865 11.7636 11.4268C11.9233 11.268 12.0664 11.0943 12.1903 10.9102L13.637 11.8849C13.4494 12.1632 13.2339 12.425 12.9966 12.6624C12.7601 12.8988 12.4992 13.1143 12.2243 13.2993C11.9434 13.4896 11.6441 13.651 11.3335 13.7827C11.0124 13.9171 10.6825 14.0201 10.3492 14.0881C10.0037 14.1579 9.64853 14.1937 9.29601 14.1937C8.94349 14.1937 8.58835 14.1579 8.24282 14.0873C7.90862 14.0201 7.57879 13.9171 7.25943 13.7827C6.94792 13.651 6.64863 13.4887 6.36854 13.2993C6.0928 13.1126 5.83191 12.898 5.59369 12.6597C5.35723 12.4241 5.14083 12.1632 4.9541 11.884L6.40082 10.9094C6.5256 11.0935 6.6687 11.2671 6.82664 11.4242C6.98806 11.5865 7.1617 11.7296 7.34494 11.8535C7.5308 11.9791 7.73062 12.0873 7.93742 12.1746C8.15032 12.2636 8.36934 12.3325 8.59097 12.3779ZM6.24201 6.34059C6.9645 6.34059 7.55087 6.92696 7.55087 7.64945C7.55087 8.37193 6.9645 8.9583 6.24201 8.9583C5.51953 8.9583 4.93316 8.37193 4.93316 7.64945C4.93316 6.92696 5.51953 6.34059 6.24201 6.34059Z" fill="#5799F1"/>
</svg>
